HIERARCHY
ROOT Hips
{
	OFFSET 0.000000 0.000000 0.000000
	CHANNELS 6 Xposition Yposition Zposition Zrotation Yrotation Xrotation 
	JOINT LowerBack
	{
		OFFSET 0.000000 0.000000 0.000000
		CHANNELS 3 Zrotation Yrotation Xrotation
		JOINT Spine
		{
			OFFSET 0.028270 2.035590 -0.193380
			CHANNELS 3 Zrotation Yrotation Xrotation
			JOINT Spine1
			{
				OFFSET 0.056720 2.048850 -0.042750
				CHANNELS 3 Zrotation Yrotation Xrotation
				JOINT Neck
				{
					OFFSET 0.000000 0.000000 0.000000
					CHANNELS 3 Zrotation Yrotation Xrotation
					JOINT Neck1
					{
						OFFSET -0.054170 1.746240 0.172020
						CHANNELS 3 Zrotation Yrotation Xrotation
						JOINT Head
						{
							OFFSET 0.104070 1.761360 -0.123970
							CHANNELS 3 Zrotation Yrotation Xrotation
							End Site
							{
								OFFSET 0.000000 0.000000 0.000000
							}
						}
					}
				}
				JOINT LeftShoulder
				{
					OFFSET 0.000000 0.000000 0.000000
					CHANNELS 3 Zrotation Yrotation Xrotation
					JOINT LeftArm
					{
						OFFSET 3.362410 1.200890 -0.311210
						CHANNELS 3 Zrotation Yrotation Xrotation
						JOINT LeftForeArm
						{
							OFFSET 4.983000 -0.000000 -0.000000
							CHANNELS 3 Zrotation Yrotation Xrotation
							JOINT LeftHand
							{
								OFFSET 3.483560 -0.000000 -0.000000
								CHANNELS 3 Zrotation Yrotation Xrotation
								JOINT LeftFingerBase
								{
									OFFSET 0.000000 0.000000 0.000000
									CHANNELS 3 Zrotation Yrotation Xrotation
									JOINT LeftHandIndex1
									{
										OFFSET 0.715260 -0.000000 -0.000000
										CHANNELS 3 Zrotation Yrotation Xrotation
										End Site
										{
											OFFSET 0.000000 0.000000 0.000000
										}
									}
								}
								JOINT LThumb
								{
									OFFSET 0.000000 0.000000 0.000000
									CHANNELS 3 Zrotation Yrotation Xrotation
									End Site
									{
										OFFSET 0.000000 0.000000 0.000000
									}
								}
							}
						}
					}
				}
				JOINT RightShoulder
				{
					OFFSET 0.000000 0.000000 0.000000
					CHANNELS 3 Zrotation Yrotation Xrotation
					JOINT RightArm
					{
						OFFSET -3.136600 1.374050 -0.404650
						CHANNELS 3 Zrotation Yrotation Xrotation
						JOINT RightForeArm
						{
							OFFSET -5.241900 -0.000000 -0.000000
							CHANNELS 3 Zrotation Yrotation Xrotation
							JOINT RightHand
							{
								OFFSET -3.444170 -0.000000 -0.000000
								CHANNELS 3 Zrotation Yrotation Xrotation
								JOINT RightFingerBase
								{
									OFFSET 0.000000 0.000000 0.000000
									CHANNELS 3 Zrotation Yrotation Xrotation
									JOINT RightHandIndex1
									{
										OFFSET -0.622530 -0.000000 -0.000000
										CHANNELS 3 Zrotation Yrotation Xrotation
										End Site
										{
											OFFSET 0.000000 0.000000 0.000000
										}
									}
								}
								JOINT RThumb
								{
									OFFSET 0.000000 0.000000 0.000000
									CHANNELS 3 Zrotation Yrotation Xrotation
									End Site
									{
										OFFSET 0.000000 0.000000 0.000000
									}
								}
							}
						}
					}
				}
			}
		}
	}
}
}
MOTION
Frames: 9
Frame Time: 0.008333
3.308333 17.246856 0.729276 12.723409 -83.276402 0.248598 -1.776541 3.390971 -4.711213 -0.032793 3.673570 -4.203402 0.944814 3.698035 -3.277595 -4.919671 3.229356 0.412497 -0.801817 -0.197594 2.270788 0.000000 0.000000 0.000000 3.621903 1.118745 -5.610322 -94.292702 -26.606021 32.404427 179.477655 -57.527859 179.939170 1.778948 -9.081214 -0.143278 0.174175 1.063353 -0.000000 0.000000 0.000000 0.000000 0.000000 0.000000 0.000000 -14.688369 9.040564 4.041859 -20.566713 67.562182 -90.486463 -2.359195 -2.678867 -0.057891 -12.689355 3.192542 -0.401671 0.292982 -0.334415 -0.000000 0.000000 0.000000 0.000000 0.000000 0.000000 0.000000 
3.303476 17.246669 0.729936 11.696031 -83.056316 1.275005 -1.718381 3.347967 -4.706901 0.000168 3.628504 -4.207271 1.036981 3.653763 -3.316459 -5.136750 2.878549 0.390143 -0.722467 -0.192947 2.268762 0.000000 0.000000 0.000000 3.608473 1.113549 -5.578869 -94.337610 -26.420427 32.212157 179.447233 -57.463175 179.938261 1.823868 -9.081872 -0.147252 0.174974 1.063681 -0.000000 0.000000 0.000000 0.000000 0.000000 0.000000 0.000000 -15.340733 8.793041 3.777903 -19.135119 67.992402 -92.731420 -2.495347 -1.950198 -0.056003 -11.863265 4.295642 -0.495182 0.256756 -0.362687 -0.000000 0.000000 0.000000 0.000000 0.000000 0.000000 0.000000 
3.299289 17.246598 0.731815 10.664721 -82.843430 2.297771 -1.607264 3.309315 -4.674938 0.026403 3.581581 -4.238521 1.050808 3.616034 -3.491862 -5.266816 2.624164 0.485909 -0.657642 -0.191449 2.300704 0.000000 0.000000 0.000000 3.597741 1.060785 -5.465945 -94.253917 -26.197033 31.942817 179.457689 -57.405232 179.937687 1.894309 -9.049351 -0.153276 0.171449 1.066294 -0.000000 0.000000 0.000000 0.000000 0.000000 0.000000 0.000000 -15.938980 8.701260 3.226185 -15.620529 68.528832 -92.604297 -2.640391 -0.329845 -0.052914 -10.461716 5.205045 -0.523100 0.203394 -0.389525 -0.000000 0.000000 0.000000 0.000000 0.000000 0.000000 0.000000 
3.295916 17.246605 0.734734 9.662373 -82.658852 3.280646 -1.461402 3.260205 -4.622161 0.039751 3.518544 -4.283443 0.967484 3.567508 -3.734047 -5.247007 2.472500 0.640443 -0.646128 -0.194147 2.348036 0.000000 0.000000 0.000000 3.639611 1.014959 -5.312976 -94.073205 -25.954704 31.614932 179.498431 -57.347858 179.937371 1.984601 -8.991032 -0.160861 0.164539 1.070211 -0.000000 0.000000 0.000000 0.000000 0.000000 0.000000 0.000000 -16.189246 8.675137 2.580181 -11.709931 69.124913 -90.684439 -2.761778 1.522018 -0.048253 -8.623985 6.008902 -0.493323 0.139414 -0.414812 -0.000000 0.000000 0.000000 0.000000 0.000000 0.000000 0.000000 
3.293129 17.246492 0.738389 8.730985 -82.500822 4.191527 -1.310815 3.211855 -4.538684 0.025789 3.452544 -4.357489 0.749703 3.523721 -4.112614 -5.019453 2.436936 0.890224 -0.692306 -0.202030 2.421563 0.000000 0.000000 0.000000 3.799754 0.953503 -5.108446 -93.838568 -25.669789 31.271411 179.569510 -57.322330 179.937359 2.081742 -8.916658 -0.168924 0.154847 1.075889 -0.000000 0.000000 0.000000 0.000000 0.000000 0.000000 0.000000 -16.052619 8.736773 1.728594 -6.299788 69.638329 -84.604943 -2.914729 3.912057 -0.043082 -6.727622 6.309623 -0.401845 0.075771 -0.432518 -0.000000 0.000000 0.000000 0.000000 0.000000 0.000000 0.000000 
3.290875 17.246150 0.742534 7.896760 -82.372054 5.017232 -1.167174 3.164676 -4.403924 -0.017498 3.384761 -4.471739 0.398739 3.485229 -4.685383 -4.612432 2.535845 1.235746 -0.779952 -0.214166 2.522212 0.000000 0.000000 0.000000 4.089475 0.907542 -4.849762 -93.576724 -25.317526 30.944841 179.665637 -57.328772 179.937593 2.176729 -8.835879 -0.176801 0.143180 1.082583 -0.000000 0.000000 0.000000 0.000000 0.000000 0.000000 0.000000 -15.654349 8.869117 0.597042 1.457524 69.809050 -73.382227 -3.266113 7.122247 -0.039175 -5.172489 5.994016 -0.292753 0.017166 -0.444877 0.000000 0.000000 0.000000 0.000000 0.000000 0.000000 0.000000 
3.288781 17.245549 0.746910 7.168616 -82.296050 5.747472 -1.040231 3.088946 -4.236459 -0.072071 3.287358 -4.605235 -0.008910 3.414245 -5.339892 -4.105956 2.780161 1.597612 -0.896788 -0.228031 2.626228 0.000000 0.000000 0.000000 4.459702 0.964436 -4.582312 -93.301112 -24.918121 30.626486 179.757071 -57.334974 179.937774 2.266496 -8.757118 -0.184114 0.132001 1.087963 -0.000000 0.000000 0.000000 0.000000 0.000000 0.000000 0.000000 -15.041767 8.983812 -0.565656 9.899205 69.453569 -59.683003 -3.856839 11.045448 -0.037784 -4.204861 5.188770 -0.206410 -0.034940 -0.460408 -0.000000 0.000000 0.000000 0.000000 0.000000 0.000000 0.000000 
3.286890 17.244804 0.751415 6.511831 -82.289591 6.376304 -0.948144 2.963487 -4.111185 -0.109733 3.144150 -4.712926 -0.344731 3.284029 -5.834770 -3.579675 3.120535 1.914189 -1.027987 -0.241180 2.714003 0.000000 0.000000 0.000000 4.807523 1.121028 -4.356407 -93.006154 -24.558866 30.276176 179.811238 -57.334145 179.937514 2.357513 -8.682478 -0.191225 0.123808 1.091214 -0.000000 0.000000 0.000000 0.000000 0.000000 0.000000 0.000000 -14.210282 9.059535 -1.392409 16.329566 68.712725 -47.994535 -4.367368 15.320846 -0.037700 -3.712969 4.255448 -0.150991 -0.076423 -0.484053 -0.000000 0.000000 0.000000 0.000000 0.000000 0.000000 0.000000 
3.284840 17.244073 0.755953 5.910676 -82.335414 6.907988 -0.893599 2.806824 -4.059652 -0.124583 2.975629 -4.781303 -0.571903 3.116926 -6.105644 -3.068514 3.467584 2.197376 -1.158435 -0.253002 2.789355 0.000000 0.000000 0.000000 5.076216 1.308708 -4.169424 -92.681398 -24.296276 29.895210 179.834941 -57.349656 179.936852 2.453815 -8.610188 -0.198406 0.118027 1.093608 -0.000000 0.000000 0.000000 0.000000 0.000000 0.000000 0.000000 -13.241006 9.120857 -1.880186 20.535710 67.794592 -39.574760 -4.593834 19.832520 -0.037730 -3.452569 3.480637 -0.116919 -0.107164 -0.512245 -0.000000 0.000000 0.000000 0.000000 0.000000 0.000000 0.000000 
